<svg xmlns="http://www.w3.org/2000/svg" viewBox="0 0 128 128" width="128" height="128">
  <title>NotebookLM Jetpack - Bold</title>
  <desc>NotebookLM spiral logo with bold jetpack tanks and prominent flames</desc>
  <defs>
    <linearGradient id="c5b-bg" x1="0%" y1="0%" x2="100%" y2="100%">
      <stop offset="0%" style="stop-color:#1A73E8"/>
      <stop offset="100%" style="stop-color:#1050B0"/>
    </linearGradient>
    <linearGradient id="c5b-tank" x1="0%" y1="0%" x2="100%" y2="100%">
      <stop offset="0%" style="stop-color:#F1F3F4"/>
      <stop offset="100%" style="stop-color:#DADCE0"/>
    </linearGradient>
    <linearGradient id="c5b-flame" x1="0%" y1="0%" x2="0%" y2="100%">
      <stop offset="0%" style="stop-color:#FBBC04"/>
      <stop offset="40%" style="stop-color:#F97316"/>
      <stop offset="100%" style="stop-color:#EA4335"/>
    </linearGradient>
    <linearGradient id="c5b-flame-core" x1="0%" y1="0%" x2="0%" y2="100%">
      <stop offset="0%" style="stop-color:#FFFDE7"/>
      <stop offset="100%" style="stop-color:#FDD835"/>
    </linearGradient>
  </defs>

  <!-- Background rounded square -->
  <rect x="4" y="4" width="120" height="120" rx="24" fill="url(#c5b-bg)"/>

  <!-- Jetpack left tank - bigger and bolder -->
  <rect x="8" y="34" width="16" height="48" rx="8" fill="url(#c5b-tank)" stroke="white" stroke-width="1" opacity="0.95"/>
  <rect x="11" y="38" width="4" height="18" rx="2" fill="white" opacity="0.5"/>

  <!-- Jetpack right tank -->
  <rect x="96" y="34" width="16" height="48" rx="8" fill="url(#c5b-tank)" stroke="white" stroke-width="1" opacity="0.95"/>
  <rect x="105" y="38" width="4" height="18" rx="2" fill="white" opacity="0.5"/>

  <!-- Straps - thicker -->
  <path d="M24,44 L32,40" stroke="white" stroke-width="3" stroke-linecap="round" opacity="0.7"/>
  <path d="M24,70 L32,74" stroke="white" stroke-width="3" stroke-linecap="round" opacity="0.7"/>
  <path d="M96,44 L88,40" stroke="white" stroke-width="3" stroke-linecap="round" opacity="0.7"/>
  <path d="M96,70 L88,74" stroke="white" stroke-width="3" stroke-linecap="round" opacity="0.7"/>

  <!-- Flames - left tank (bigger) -->
  <path d="M9,82 Q12,98 6,116 Q16,102 20,82Z" fill="url(#c5b-flame)"/>
  <path d="M12,82 Q14,95 10,108 Q18,98 19,82Z" fill="url(#c5b-flame-core)" opacity="0.8"/>

  <!-- Flames - right tank (bigger) -->
  <path d="M100,82 Q103,98 97,116 Q107,102 111,82Z" fill="url(#c5b-flame)"/>
  <path d="M103,82 Q105,95 101,108 Q109,98 110,82Z" fill="url(#c5b-flame-core)" opacity="0.8"/>

  <!-- NotebookLM spiral logo (white, centered & larger) -->
  <g transform="translate(24, 16) scale(0.46)">
    <path d="M87.27,1.14C39.07,1.14,0,39.88,0,87.69v41.44h16.09v-4.13c0-19.39,15.84-35.11,35.39-35.11s35.39,15.72,35.39,35.11v4.13h16.09v-4.13c0-28.2-23.05-51.05-51.48-51.05-11.07,0-21.32,3.46-29.72,9.37,8.79-17.32,26.88-29.21,47.77-29.21,29.51,0,53.44,23.74,53.44,53v22.02h16.09v-22.02c0-38.08-31.13-68.96-69.53-68.96-17.27,0-33.06,6.24-45.22,16.58,11.94-22.39,35.65-37.64,62.97-37.64,39.32,0,71.19,31.61,71.19,70.6v41.44h16.09v-41.44C174.55,39.88,135.48,1.14,87.27,1.14Z" fill="white"/>
  </g>
</svg>
