<svg xmlns="http://www.w3.org/2000/svg" viewBox="0 0 128 128" width="128" height="128">
  <title>NotebookLM Jetpack</title>
  <defs>
    <linearGradient id="bg8" x1="0%" y1="0%" x2="100%" y2="100%">
      <stop offset="0%" style="stop-color:#1A73E8"/>
      <stop offset="100%" style="stop-color:#1255B0"/>
    </linearGradient>
  </defs>

  <!-- Background -->
  <rect x="4" y="4" width="120" height="120" rx="24" fill="url(#bg8)"/>

  <!-- Jetpack person, white on blue, centered -->
  <g transform="translate(64,64) scale(0.92) translate(-78.5,-77.5)" fill="white">
    <path d="M72.135429,114.488411 C76.012177,108.870392 79.804344,103.632202 83.810081,98.099007 C80.428185,94.118004 76.972122,90.077621 73.547028,86.011154 C68.698792,80.255074 68.536003,76.326691 72.957123,70.355927 C76.226433,65.940681 79.520920,61.542233 82.893761,57.205975 C86.426453,52.664204 90.600204,51.741600 94.543686,54.485363 C98.486076,57.228363 99.022224,61.602989 95.973534,66.337952 C94.904396,67.998451 93.787766,69.628372 92.302979,71.857559 C95.268700,72.487999 97.963890,72.604851 100.187317,73.689110 C101.747643,74.449997 102.664925,76.529526 103.869362,78.020195 C102.153770,78.936005 100.365463,80.732796 98.736549,80.598366 C94.288536,80.231270 89.881027,79.165352 85.508484,78.155373 C81.777733,77.293640 81.035614,74.968338 83.153252,71.858658 C84.744141,69.522476 86.679787,67.410522 88.148682,65.007271 C88.695503,64.112633 88.352188,62.673931 88.414780,61.483322 C87.309448,61.843987 85.813316,61.871563 85.170174,62.626152 C83.017807,65.151505 80.973930,67.817413 79.252502,70.650642 C76.712303,74.831474 78.135147,80.259804 82.691452,81.324394 C87.129631,82.361382 88.898460,85.345894 90.860558,88.554100 C97.736435,99.796722 98.239098,96.499992 89.994286,107.668037 C87.423965,111.149689 85.123795,114.904510 82.116150,117.959526 C80.531181,119.569458 77.485527,120.942200 75.480019,120.537209 C74.015099,120.241394 73.171440,116.869141 72.135429,114.488411z"/>
    <path d="M70.575264,51.531242 C70.928436,51.144436 71.022820,50.999920 71.151131,50.898201 C73.673859,48.898228 76.347992,45.222626 79.613098,47.800491 C83.077751,50.535892 80.519806,54.386032 78.576828,57.118946 C74.934929,62.241528 70.810852,67.021309 66.786705,72.069908 C64.179733,70.017448 61.881622,68.208153 59.179298,66.080620 C63.022041,61.157990 66.677155,56.475723 70.575264,51.531242z"/>
    <path d="M95.855118,51.335983 C90.877411,45.998154 90.862495,40.568569 95.512093,36.932861 C99.552719,33.773331 105.262169,34.542545 108.234039,38.759560 C110.707832,42.269829 110.663818,45.895351 108.132401,49.364933 C105.399216,53.111057 101.542015,53.775352 95.855118,51.335983z"/>
    <path d="M56.076126,70.058609 C59.506550,68.714684 60.582218,70.094337 58.926952,72.719055 C56.565853,76.463013 53.707115,79.912010 50.849049,83.308708 C50.233154,84.040672 48.715099,84.013535 47.612606,84.336060 C47.630283,83.174088 47.191864,81.692696 47.743671,80.904808 C50.289772,77.269386 53.111595,73.827080 56.076126,70.058609z"/>
    <path d="M60.671799,77.328552 C61.291580,78.506462 62.202030,79.999985 61.788269,80.648026 C60.120182,83.260620 58.145401,85.705544 56.049557,87.998177 C55.486862,88.613708 54.095711,88.471893 53.084866,88.677742 C53.032219,87.655670 52.526886,86.276222 53.003750,85.672180 C55.308895,82.752266 57.878159,80.040855 60.671799,77.328552z"/>
  </g>
</svg>
